<svg xmlns="http://www.w3.org/2000/svg" width="64" height="64" viewBox="0 0 64 64"><g class="nc-icon-wrapper" fill="#9b9b9b"><path fill="#9b9b9b" d="M61,9H3c-1.105,0-2,0.895-2,2v42c0,1.105,0.895,2,2,2h58c1.105,0,2-0.895,2-2V11C63,9.895,62.105,9,61,9z M57.562,15.827l-25,17C32.393,32.942,32.196,33,32,33s-0.393-0.058-0.563-0.173l-25-17c-0.456-0.311-0.575-0.933-0.265-1.39 c0.311-0.455,0.932-0.575,1.39-0.265L32,30.791l24.437-16.618c0.456-0.311,1.079-0.19,1.39,0.265 C58.138,14.895,58.019,15.517,57.562,15.827z"/></g></svg>