<svg xmlns="http://www.w3.org/2000/svg" width="64" height="64" viewBox="0 0 64 64"><g class="nc-icon-wrapper" fill="#9b9b9b"><path data-color="color-2" d="M61.707,18.293l-7.586-7.586l6-6c0.391-0.391,0.391-1.024,0-1.414l-1.414-1.414 c-0.391-0.391-1.024-0.391-1.414,0L28.222,30.95c1.045,0.836,1.993,1.784,2.829,2.829l13.657-13.657l7.586,7.586 C52.488,27.902,52.744,28,53,28s0.512-0.098,0.707-0.293l8-8C62.098,19.316,62.098,18.684,61.707,18.293z"/> <path fill="#9b9b9b" d="M17,29C8.178,29,1,36.178,1,45s7.178,16,16,16s16-7.178,16-16S25.822,29,17,29z M15,51c-2.209,0-4-1.791-4-4 s1.791-4,4-4s4,1.791,4,4S17.209,51,15,51z"/></g></svg>